<svg id="Layer_1" height="512" viewBox="0 0 64 64" width="512" xmlns="http://www.w3.org/2000/svg" data-name="Layer 1"><path d="m16 2h32v60h-32z" fill="#3d54bd"/><path d="m20 6h12v44h-12z" fill="#546ded"/><path d="m22 31-20-9v40h20z" fill="#2a2a2a"/><path d="m2 22v36h14a2 2 0 0 0 2-2v-26.8z" fill="#474747"/><rect fill="#686868" height="20" rx="1" width="8" x="4" y="35"/><path d="m32 6h12v44h-12z" fill="#7fa3f8"/><path d="m62 30-10-8-10 8v32h20z" fill="#2a2a2a"/><path d="m52 22-10 8v28h15a2 2 0 0 0 2-2v-28.4z" fill="#474747"/><g fill="#686868"><rect height="16" rx="1" width="8" x="44" y="30"/><path d="m5 26h2v8h-2z"/><path d="m9 28h2v6h-2z"/><path d="m13 30h2v4h-2z"/><path d="m17 32h2v2h-2z"/></g><path d="m5 36h2v6h-2z" fill="#ccc"/><path d="m9 36h2v6h-2z" fill="#ccc"/><path d="m13 36h2v6h-2z" fill="#686868"/><path d="m17 36h2v6h-2z" fill="#686868"/><path d="m5 44h2v6h-2z" fill="#ccc"/><path d="m9 44h2v6h-2z" fill="#ccc"/><path d="m13 44h2v6h-2z" fill="#686868"/><path d="m17 44h2v6h-2z" fill="#686868"/><path d="m8 62v-5h6v5" fill="#c8cded"/><path d="m49 62v-5h6v5" fill="#c8cded"/><path d="m46 32h4v4h-4z" fill="#ccc"/><path d="m54 32h4v4h-4z" fill="#686868"/><path d="m46 40h4v4h-4z" fill="#ccc"/><path d="m54 40h4v4h-4z" fill="#686868"/><path d="m46 48h4v4h-4z" fill="#686868"/><path d="m54 48h4v4h-4z" fill="#686868"/><path d="m31 6h2v44h-2z" fill="#3b5892"/><path d="m36 62v-8h-8v8" fill="#172e50"/><path d="m23 9h2v6h-2z" fill="#3b5892"/><path d="m27 9h2v6h-2z" fill="#c0dafc"/><path d="m23 17h2v6h-2z" fill="#c0dafc"/><path d="m27 17h2v6h-2z" fill="#3b5892"/><path d="m23 25h2v6h-2z" fill="#3b5892"/><path d="m35 9h2v6h-2z" fill="#c0dafc"/><path d="m39 9h2v6h-2z" fill="#3b5892"/><path d="m35 17h2v6h-2z" fill="#3b5892"/><path d="m39 17h2v6h-2z" fill="#c0dafc"/><path d="m37 51h-10v-26h2v24h6v-24h2z" fill="#c0dafc"/><path d="m39 25h2v6h-2z" fill="#3b5892"/><path d="m5 52h2v2h-2z" fill="#ccc"/><path d="m9 52h2v2h-2z" fill="#ccc"/><path d="m13 52h2v2h-2z" fill="#686868"/><path d="m17 52h2v2h-2z" fill="#686868"/><path d="m49 57v4h4a1 1 0 0 0 1-1v-3z" fill="#e2e7f6"/><path d="m8 57v4h4a1 1 0 0 0 1-1v-3z" fill="#e2e7f6"/><path d="m28 54v6h5a1 1 0 0 0 1-1v-5z" fill="#213d68"/><path d="m18 52h1v2h-1z" fill="#474747"/><path d="m18 44h1v6h-1z" fill="#474747"/><path d="m18 36h1v6h-1z" fill="#474747"/><path d="m18 32h1v2h-1z" fill="#474747"/></svg>